:SAMPLES-PER-SECOND 30
:FULLY-SPECIFIED
:DEGREES
199
root  -9.72588 24.6236 -2.1843 80.1314 -45.3028 -10.1763
RightUpLeg  -120.587 -21.1476 47.8135
RightLeg  93.1002 0.840167 -5.71616
RightFoot  -41.8325 1.76157 7.51394
RightToes  -1.16417e-010 0 -3.6325e-017
Spine  -56.9894 -3.14514 13.5495
Spine1  45.0929 -9.25937 -17.5951
HEad  -43.3391 -44.5608 -4.91492
LeftShoulder1  1.22832 -4.19481 -8.48582
LeftArm  -22.7103 -41.4 -32.6161
LeftForeArm  17.559 -4.65787 -0.246056
LeftHand  0.0484696 10.4144 2.32436
RightShoulder  -0.288376 -4.4538 23.1824
RightArm  1.64059 17.3265 60.4396
RightForeArm  41.772 73.385 35.5028
RightHand  -0.410369 5.83937 -4.5612
LeftUpLeg  -135.268 9.74052 34.24
LeftLeg  88.6414 -0.113825 -12.1355
LeftFoot  -25.3107 -0.180074 -2.70823
LeftToes  1.47335e-010 -1.29615e-010 3.08757e-011
200
root  -9.58842 24.9725 -2.10414 78.7014 -44.3847 -10.1651
RightUpLeg  -119.093 -22.3653 48.055
RightLeg  91.851 0.717957 -5.86296
RightFoot  -41.2379 1.69318 7.3945
RightToes  -1.16417e-010 0 -3.6325e-017
Spine  -53.0007 -2.82529 14.8124
Spine1  42.4919 -9.21356 -18.1527
HEad  -44.7087 -45.1541 -3.49132
LeftShoulder1  1.24645 -4.34164 -8.41121
LeftArm  -22.1939 -38.0875 -33.176
LeftForeArm  16.5971 -5.43626 -0.358801
LeftHand  0.0504405 10.2843 2.41621
RightShoulder  -0.290774 -4.47025 22.9235
RightArm  2.75965 17.2541 60.8388
RightForeArm  44.9073 74.2157 37.5703
RightHand  -0.242196 6.15348 -2.76562
LeftUpLeg  -133.683 8.54426 34.7925
LeftLeg  87.4319 -0.37726 -12.5193
LeftFoot  -24.6689 -0.136736 -2.43954
LeftToes  1.47335e-010 -1.29615e-010 3.08757e-011
201
root  -9.51324 25.3923 -2.17663 76.5996 -46.0006 -10.7135
RightUpLeg  -116.291 -23.179 45.3045
RightLeg  90.7176 0.625085 -6.36765
RightFoot  -40.2388 1.50292 6.90126
RightToes  -1.16417e-010 0 -3.6325e-017
Spine  -48.0259 -3.8737 11.8853
Spine1  40.8023 -8.91968 -16.4009
HEad  -45.4034 -45.1467 -2.7766
LeftShoulder1  1.26009 -4.53383 -8.17708
LeftArm  -21.9898 -34.8479 -33.3608
LeftForeArm  17.0678 -5.80678 -0.32981
LeftHand  0.0411182 10.4336 2.15808
RightShoulder  -0.299218 -4.49376 23.0806
RightArm  4.06815 17.1846 61.1935
RightForeArm  47.7803 75.151 40.5786
RightHand  -0.235338 5.95898 -2.74626
LeftUpLeg  -130.426 7.55417 33.3462
LeftLeg  86.4216 -0.6088 -12.7933
LeftFoot  -24.6511 -0.143942 -2.50233
LeftToes  1.47335e-010 -1.29615e-010 3.08757e-011
202
root  -9.31083 25.6328 -2.17232 73.9262 -45.8778 -11.2614
RightUpLeg  -113.735 -25.1668 44.4754
RightLeg  90.2196 0.560343 -6.18161
RightFoot  -39.8931 1.44235 6.73991
RightToes  -1.16417e-010 0 -3.6325e-017
Spine  -41.626 -3.89267 12.9535
Spine1  37.7861 -8.38683 -17.0954
HEad  -45.9866 -45.6391 -2.25786
LeftShoulder1  1.26011 -4.72932 -7.76019
LeftArm  -21.4926 -32.2383 -33.4793
LeftForeArm  17.5119 -5.92813 -0.503302
LeftHand  0.0352301 10.6304 1.96891
RightShoulder  -0.339411 -4.61299 23.5402
RightArm  5.34913 17.2541 61.223
RightForeArm  50.7603 76.1014 44.3775
RightHand  -0.270132 5.24962 -3.25101
LeftUpLeg  -127.747 6.04682 33.5309
LeftLeg  86.0647 -0.700716 -13.042
LeftFoot  -24.3342 -0.143103 -2.53952
LeftToes  1.47335e-010 -1.29615e-010 3.08757e-011
203
root  -9.32603 25.8293 -2.11369 74.5272 -45.543 -10.6494
RightUpLeg  -114.271 -24.84 45.0309
RightLeg  89.1334 0.436066 -6.07036
RightFoot  -39.6354 1.42268 6.71872
RightToes  -1.16417e-010 0 -3.6325e-017
Spine  -43.6351 -3.69106 12.5216
Spine1  39.2029 -7.92437 -17.3884
HEad  -46.1901 -45.8884 -1.85597
LeftShoulder1  1.26389 -4.87983 -7.50231
LeftArm  -21.4965 -29.3788 -34.1724
LeftForeArm  17.9848 -6.4952 -0.317612
LeftHand  0.00924583 10.2817 1.4835
RightShoulder  -0.390624 -4.77703 23.7185
RightArm  6.72126 17.5999 61.0951
RightForeArm  53.6213 76.8077 47.7383
RightHand  -0.161073 5.57081 -2.0237
LeftUpLeg  -128.196 6.07161 32.9471
LeftLeg  84.9304 -0.984554 -13.4352
LeftFoot  -23.9878 -0.125292 -2.43037
LeftToes  1.47335e-010 -1.29615e-010 3.08757e-011
204
root  -9.3178 26.0676 -2.16797 73.2393 -46.4859 -11.1354
RightUpLeg  -112.185 -25.3248 43.3784
RightLeg  88.4224 0.360933 -6.20229
RightFoot  -39.2921 1.4169 6.77116
RightToes  -1.16417e-010 0 -3.6325e-017
Spine  -40.7518 -4.18632 10.5734
Spine1  38.5087 -7.69238 -16.2469
HEad  -46.2046 -46.0187 -1.0229
LeftShoulder1  1.28692 -5.0299 -7.50896
LeftArm  -21.0715 -27.0067 -33.9874
LeftForeArm  17.0083 -6.14412 -0.436925
LeftHand  0.0291411 10.492 1.8821
RightShoulder  -0.352835 -4.65866 23.5303
RightArm  8.01353 17.3671 61.8659
RightForeArm  57.1069 77.4332 50.9932
RightHand  -0.17589 5.65282 -2.16738
LeftUpLeg  -126.055 5.66849 31.8899
LeftLeg  84.4581 -1.11843 -13.7422
LeftFoot  -23.913 -0.0853474 -2.07768
LeftToes  1.47335e-010 -1.29615e-010 3.08757e-011
205
root  -9.3057 26.1967 -2.08533 75.356 -45.8351 -11.214
RightUpLeg  -110.627 -22.763 42.1853
RightLeg  88.431 0.287015 -6.20143
RightFoot  -39.2909 1.39889 6.70732
RightToes  -1.16417e-010 0 -3.6325e-017
Spine  -41.3474 -4.89863 11.7756
Spine1  37.0227 -7.95686 -16.5962
HEad  -45.6457 -46.0353 -1.19891
LeftShoulder1  1.29108 -5.14776 -7.33213
LeftArm  -21.2451 -25.4221 -34.1998
LeftForeArm  16.678 -4.9546 -0.0227712
LeftHand  0.0347037 10.386 2.01866
RightShoulder  -0.341854 -4.61651 23.677
RightArm  9.43437 17.4395 62.3057
RightForeArm  58.6732 77.7823 53.4666
RightHand  -0.225305 5.47854 -2.71867
LeftUpLeg  -128.801 4.4934 33.7188
LeftLeg  84.3772 -1.22673 -14.336
LeftFoot  -23.5481 -0.0644436 -1.92825
LeftToes  1.47335e-010 -1.29615e-010 3.08757e-011
206
root  -8.89041 26.5184 -2.41952 36.9443 -45.4755 -7.29547
RightUpLeg  -113.351 -63.6206 55.6807
RightLeg  84.8971 0.607309 -3.45678
RightFoot  -38.4516 1.17544 5.91364
RightToes  -1.16417e-010 0 -3.6325e-017
Spine  -6.8424 -0.894371 4.96592
Spine1  39.2487 -7.52971 -16.1411
HEad  -45.0828 -46.3796 -1.25803
LeftShoulder1  1.30204 -5.23851 -7.29904
LeftArm  -20.974 -24.4132 -34.9556
LeftForeArm  16.6647 -3.80344 0.160176
LeftHand  0.0345381 10.7572 1.9933
RightShoulder  -0.378547 -4.74611 23.4899
RightArm  10.6611 17.5969 62.5881
RightForeArm  61.7712 78.236 56.7406
RightHand  -0.179437 4.95969 -2.31396
LeftUpLeg  -89.8503 3.82764 17.7702
LeftLeg  81.5091 -1.32183 -11.9627
LeftFoot  -24.2053 -0.0845221 -2.01451
LeftToes  1.47335e-010 -1.29615e-010 3.08757e-011
207
root  -7.09412 27.2685 -3.73847 -111.541 -43.7368 7.54962
RightUpLeg  49.2464 39.3428 -57.672
RightLeg  73.8316 2.07326 8.03237
RightFoot  -36.2091 0.459138 3.23014
RightToes  -1.16417e-010 0 -3.6325e-017
Spine  129.854 14.8841 -14.697
Spine1  42.3578 -5.39393 -20.023
HEad  -44.0035 -45.6909 -1.80142
LeftShoulder1  1.32489 -5.42442 -7.24008
LeftArm  -20.8785 -22.845 -34.9224
LeftForeArm  16.649 -3.4962 0.256238
LeftHand  -0.0611561 11.2981 -0.0144673
RightShoulder  -0.37225 -4.71838 23.6481
RightArm  11.8394 17.0658 63.2652
RightForeArm  66.361 78.7456 60.6816
RightHand  -0.151314 5.08511 -1.98152
LeftUpLeg  56.4605 0.882691 -42.396
LeftLeg  72.654 -1.11624 -2.48269
LeftFoot  -27.0664 -0.182775 -2.51073
LeftToes  1.47335e-010 -1.29615e-010 3.08757e-011
208
root  -7.31594 27.2351 -3.62192 -99.7832 -44.043 6.9379
RightUpLeg  49.683 26.9607 -63.121
RightLeg  74.7784 1.91052 6.94325
RightFoot  -36.5303 0.538925 3.5293
RightToes  -1.16417e-010 0 -3.6325e-017
Spine  118.488 14.3083 -13.1154
Spine1  41.9451 -5.13694 -19.7405
HEad  -42.8264 -45.2398 -2.10444
LeftShoulder1  1.34182 -5.65205 -7.03197
LeftArm  -20.7361 -22.1941 -35.0057
LeftForeArm  16.5555 -2.69064 0.345357
LeftHand  -0.0731218 11.4428 -0.184861
RightShoulder  -0.399715 -4.7884 24.1705
RightArm  12.9584 17.2139 63.2531
RightForeArm  68.1904 78.9419 62.7224
RightHand  -0.127274 4.98041 -1.72845
LeftUpLeg  44.6696 1.38697 -37.3707
LeftLeg  73.2363 -1.11715 -3.16111
LeftFoot  -26.9047 -0.172019 -2.44226
LeftToes  1.47335e-010 -1.29615e-010 3.08757e-011
